<svg width="32" height="32" viewBox="0 0 32 32" fill="none" xmlns="http://www.w3.org/2000/svg">
<path d="M24 8.00001H19.2133L22.28 4.94668C22.4043 4.82236 22.5029 4.67477 22.5702 4.51235C22.6375 4.34992 22.6721 4.17583 22.6721 4.00001C22.6721 3.8242 22.6375 3.65011 22.5702 3.48768C22.5029 3.32525 22.4043 3.17766 22.28 3.05335C22.1557 2.92903 22.0081 2.83041 21.8457 2.76313C21.6832 2.69585 21.5091 2.66122 21.3333 2.66122C20.9783 2.66122 20.6377 2.80227 20.3867 3.05335L16 7.45335L11.6133 3.05335C11.489 2.92903 11.3414 2.83041 11.179 2.76313C11.0166 2.69585 10.8425 2.66122 10.6667 2.66122C10.4909 2.66122 10.3168 2.69585 10.1543 2.76313C9.99191 2.83041 9.84432 2.92903 9.72 3.05335C9.46893 3.30442 9.32788 3.64494 9.32788 4.00001C9.32788 4.17583 9.36251 4.34992 9.42979 4.51235C9.49707 4.67477 9.59568 4.82236 9.72 4.94668L12.7867 8.00001H8C6.93913 8.00001 5.92172 8.42144 5.17157 9.17159C4.42143 9.92173 4 10.9391 4 12V25.3333C4 26.3942 4.42143 27.4116 5.17157 28.1618C5.92172 28.9119 6.93913 29.3333 8 29.3333H24C25.0609 29.3333 26.0783 28.9119 26.8284 28.1618C27.5786 27.4116 28 26.3942 28 25.3333V12C28 10.9391 27.5786 9.92173 26.8284 9.17159C26.0783 8.42144 25.0609 8.00001 24 8.00001ZM25.3333 25.3333C25.3333 25.687 25.1929 26.0261 24.9428 26.2762C24.6928 26.5262 24.3536 26.6667 24 26.6667H8C7.64638 26.6667 7.30724 26.5262 7.05719 26.2762C6.80714 26.0261 6.66667 25.687 6.66667 25.3333V16C6.66667 15.6464 6.80714 15.3073 7.05719 15.0572C7.30724 14.8072 7.64638 14.6667 8 14.6667H24C24.3536 14.6667 24.6928 14.8072 24.9428 15.0572C25.1929 15.3073 25.3333 15.6464 25.3333 16V25.3333Z" fill="white"/>
</svg>
