<svg width="29" height="29" viewBox="0 0 29 29" fill="none" xmlns="http://www.w3.org/2000/svg">
<path d="M8.15626 15.8594H3.62501C3.26448 15.8594 2.91872 15.7162 2.66378 15.4612C2.40885 15.2063 2.26563 14.8605 2.26563 14.5C2.26563 14.1395 2.40885 13.7937 2.66378 13.5388C2.91872 13.2839 3.26448 13.1406 3.62501 13.1406H7.43126L8.83595 11.0223C8.96168 10.8377 9.13062 10.6867 9.32805 10.5823C9.52548 10.4779 9.74543 10.4233 9.96876 10.4233C10.1921 10.4233 10.412 10.4779 10.6095 10.5823C10.8069 10.6867 10.9758 10.8377 11.1016 11.0223L13.5938 14.7719L14.2734 13.741C14.399 13.5562 14.5679 13.4049 14.7653 13.3002C14.9628 13.1956 15.1828 13.1408 15.4063 13.1406H18.125C18.4855 13.1406 18.8313 13.2839 19.0862 13.5388C19.3412 13.7937 19.4844 14.1395 19.4844 14.5C19.4844 14.8605 19.3412 15.2063 19.0862 15.4612C18.8313 15.7162 18.4855 15.8594 18.125 15.8594H16.1313L14.7266 17.9777C14.6008 18.1623 14.4319 18.3134 14.2345 18.4178C14.037 18.5222 13.8171 18.5767 13.5938 18.5767C13.3704 18.5767 13.1505 18.5222 12.953 18.4178C12.7556 18.3134 12.5867 18.1623 12.4609 17.9777L9.96876 14.2281L9.28907 15.259C9.16349 15.4438 8.99463 15.5952 8.79719 15.6998C8.59975 15.8044 8.37971 15.8592 8.15626 15.8594ZM19.9375 3.17189C18.9095 3.17092 17.893 3.38859 16.9556 3.81045C16.0181 4.23231 15.1811 4.84872 14.5 5.61876C13.5553 4.54908 12.3159 3.78201 10.9372 3.41366C9.55839 3.04531 8.10158 3.09207 6.74927 3.54808C5.39697 4.00409 4.20932 4.84906 3.33516 5.97712C2.461 7.10518 1.9392 8.46614 1.83516 9.88947C1.81179 10.0724 1.82589 10.2582 1.87662 10.4356C1.92735 10.6129 2.01364 10.7781 2.13023 10.921C2.24683 11.0639 2.39129 11.1816 2.55483 11.267C2.71837 11.3523 2.89756 11.4034 3.08149 11.4173C3.26542 11.4311 3.45025 11.4074 3.62472 11.3475C3.79919 11.2877 3.95965 11.1929 4.09634 11.0691C4.23303 10.9452 4.34308 10.7949 4.4198 10.6271C4.49652 10.4594 4.53829 10.2778 4.54259 10.0934C4.61703 9.07742 5.03164 8.11618 5.7195 7.36481C6.40736 6.61344 7.32834 6.11577 8.33379 5.95212C9.33924 5.78847 10.3705 5.9684 11.2611 6.46285C12.1518 6.95731 12.8498 7.73745 13.2426 8.67736C13.345 8.92668 13.5192 9.13993 13.7431 9.29001C13.967 9.44008 14.2305 9.52021 14.5 9.52021C14.7695 9.52021 15.033 9.44008 15.2569 9.29001C15.4808 9.13993 15.655 8.92668 15.7574 8.67736C16.1614 7.71192 16.8871 6.91607 17.8113 6.42499C18.7354 5.93391 19.8011 5.77787 20.8273 5.98337C21.8534 6.18887 22.7768 6.74324 23.4406 7.55233C24.1044 8.36142 24.4677 9.37534 24.4688 10.4219C24.4688 16.2219 16.8223 21.4328 14.5 22.8828C13.2992 22.1352 10.7051 20.402 8.45079 18.0797C8.19842 17.8213 7.85374 17.6738 7.49259 17.6695C7.13144 17.6653 6.78339 17.8047 6.52501 18.057C6.26663 18.3094 6.11909 18.6541 6.11484 19.0152C6.11059 19.3764 6.24998 19.7244 6.50235 19.9828C9.81016 23.3813 13.6731 25.5676 13.8316 25.6582C14.0369 25.7693 14.2666 25.8274 14.5 25.8274C14.7334 25.8274 14.9631 25.7693 15.1684 25.6582C15.6555 25.375 27.1875 18.8274 27.1875 10.4219C27.1845 8.49999 26.4197 6.65766 25.0607 5.29867C23.7017 3.93968 21.8594 3.17488 19.9375 3.17189Z" fill="white"/>
</svg>
