<svg width="25" height="25" viewBox="0 0 25 25" fill="none" xmlns="http://www.w3.org/2000/svg">
<path d="M6.53181 5.08531C7.00138 3.60581 8.18869 2.38206 9.75 1.71175V3.5625C9.75 3.74484 9.82243 3.9197 9.95137 4.04864C10.0803 4.17757 10.2552 4.25 10.4375 4.25C10.6198 4.25 10.7947 4.17757 10.9236 4.04864C11.0526 3.9197 11.125 3.74484 11.125 3.5625V0.8125C11.125 0.630164 11.1974 0.455295 11.3264 0.326364C11.4553 0.197433 11.6302 0.125 11.8125 0.125H13.1875C13.3698 0.125 13.5447 0.197433 13.6736 0.326364C13.8026 0.455295 13.875 0.630164 13.875 0.8125V3.5625C13.875 3.74484 13.9474 3.9197 14.0764 4.04864C14.2053 4.17757 14.3802 4.25 14.5625 4.25C14.7448 4.25 14.9197 4.17757 15.0486 4.04864C15.1776 3.9197 15.25 3.74484 15.25 3.5625V1.71175C16.834 2.39169 18.0323 3.64019 18.4881 5.14856C18.3114 5.29156 18.0165 5.46481 17.5566 5.63256C16.5308 6.00656 14.81 6.3125 12.1384 6.3125C10.2141 6.3125 8.66788 6.01275 7.62425 5.63188C7.121 5.44831 6.75938 5.25444 6.53181 5.08531Z" fill="white"/>
<path fill-rule="evenodd" clip-rule="evenodd" d="M18.0275 6.92438C18.6359 6.70163 19.1158 6.43488 19.4568 6.12825C19.8466 6.50157 20.0625 6.912 20.0625 7.34375C20.0625 8.16738 19.276 8.91607 17.9931 9.47019C18.0304 10.2147 17.9159 10.959 17.6567 11.6579C17.3974 12.3567 16.9988 12.9956 16.4851 13.5357C15.9713 14.0759 15.3532 14.5059 14.6681 14.7997C13.9831 15.0936 13.2454 15.2451 12.5 15.2451C11.7546 15.2451 11.0169 15.0936 10.3319 14.7997C9.64683 14.5059 9.02865 14.0759 8.5149 13.5357C8.00115 12.9956 7.60255 12.3567 7.34332 11.6579C7.08408 10.959 6.96962 10.2147 7.00688 9.47019C5.724 8.91607 4.9375 8.16738 4.9375 7.34375C4.9375 6.89688 5.1685 6.47269 5.58444 6.08975L5.66212 6.15163C6.03612 6.44106 6.54763 6.703 7.154 6.92369C8.37156 7.3685 10.0821 7.6875 12.1384 7.6875C14.8939 7.6875 16.7921 7.37469 18.0275 6.92438ZM8.37913 9.93838C8.42661 10.9994 8.88152 12.0012 9.64914 12.7353C10.4168 13.4693 11.4379 13.8789 12.5 13.8789C13.5621 13.8789 14.5832 13.4693 15.3509 12.7353C16.1185 12.0012 16.5734 10.9994 16.6209 9.93838C15.4356 10.2546 14.0194 10.4375 12.5 10.4375C10.9806 10.4375 9.56438 10.2539 8.37913 9.93838ZM0.125 24.875H14.5625V16.9688L13.1875 18V20.6792C12.9621 20.7311 12.7312 20.7549 12.5 20.75C12.1734 20.75 11.9534 20.7156 11.8125 20.6792V18.1526L8.61769 15.668C4.6075 16.438 0.125 18.2324 0.125 20.75V24.875ZM4.9375 23.5H10.4375V20.1863L5.95156 20.9343L7.24131 17.3881C6.45994 17.5891 5.69074 17.8347 4.9375 18.1238V23.5ZM1.5 23.5H3.5625V18.7418L3.51162 18.7686C2.78012 19.1564 2.24525 19.5517 1.90837 19.9236C1.57837 20.2894 1.5 20.5596 1.5 20.75V23.5Z" fill="white"/>
<path d="M18.3919 13.6344C18.7893 13.2288 19.3406 13.6378 19.2196 14.1926L19.2018 14.2738C19.1399 14.5565 19.1423 14.8496 19.2086 15.1313C19.275 15.4131 19.4036 15.6763 19.5851 15.9018C19.7666 16.1273 19.9964 16.3092 20.2575 16.4342C20.5185 16.5592 20.8043 16.6241 21.0938 16.6241C21.3832 16.6241 21.669 16.5592 21.9301 16.4342C22.1911 16.3092 22.4209 16.1273 22.6024 15.9018C22.7839 15.6763 22.9125 15.4131 22.9789 15.1313C23.0452 14.8496 23.0476 14.5565 22.9858 14.2738L22.9679 14.1926C22.8469 13.6378 23.3983 13.2294 23.7956 13.6351C24.4887 14.3411 24.8764 15.2912 24.875 16.2806C24.8754 16.9218 24.7126 17.5526 24.4019 18.1136C24.0913 18.6745 23.643 19.1472 23.0992 19.4871C22.9074 19.6067 22.8125 19.8363 22.8125 20.0625V23.5C22.8125 23.8647 22.6676 24.2144 22.4098 24.4723C22.1519 24.7301 21.8022 24.875 21.4375 24.875H20.75C20.3853 24.875 20.0356 24.7301 19.7777 24.4723C19.5199 24.2144 19.375 23.8647 19.375 23.5V20.0625C19.375 19.8363 19.2801 19.6067 19.0883 19.4871C18.5445 19.1471 18.0961 18.6744 17.7854 18.1133C17.4747 17.5522 17.312 16.9212 17.3125 16.2799C17.3125 15.25 17.7243 14.3157 18.3919 13.6344V13.6344Z" fill="white"/>
</svg>
